<?xml version="1.0" encoding="utf-8"?>
<!-- Generator: Adobe Illustrator 23.0.3, SVG Export Plug-In . SVG Version: 6.00 Build 0)  -->
<svg version="1.1" id="Layer_1" xmlns="http://www.w3.org/2000/svg" xmlns:xlink="http://www.w3.org/1999/xlink" x="0px" y="0px"
	 viewBox="0 0 1242 2208" style="enable-background:new 0 0 1242 2208;" xml:space="preserve">
<g>
	<path d="M824.19,903L677.7,1262h338.39c45.27,0,67.91,15.66,67.91,47c0,22.19-7.98,39.39-23.94,51.64
		c-15.97,12.23-38.11,18.36-66.44,18.36H630.34l-5.86,13.73c-22.78,51-40.67,86.8-53.69,107.41
		c-13.02,20.58-29.94,40.53-50.75,59.83c-54.34,50.02-116.8,75.03-187.39,75.03c-57.28,0-104.53-17.16-141.78-51.47
		S135,1505.59,135,1452.67c0-33.02,7.97-63.91,23.89-92.64c15.95-28.77,37.56-51.16,64.88-67.16
		c35.44-20.59,83.56-30.88,144.38-30.88H540.5l146-359h-58.59h-13.19c-36.48,0-54.72-16.16-54.72-48.47
		c0-21.2,7.97-37.92,23.92-50.17c15.95-12.23,38.09-18.36,66.44-18.36h83.5l22.44-55.08C798.89,625.64,863.92,573,951.41,573
		c44.55,0,81.61,14.08,111.2,42.23S1107,678.61,1107,720.92c0,54.03-21.45,97.88-64.34,131.56C999.75,886.17,944.03,903,875.47,903
		H824.19z M492.66,1379H364.23c-63.5,0-95.23,22.73-95.23,68.23c0,18.64,6.98,34.27,20.95,46.88c13.97,12.58,31.5,18.89,52.63,18.89
		c28.91,0,56.75-12.03,83.56-36.08C452.94,1452.86,475.11,1420.22,492.66,1379z M871.56,786h22.45c24.16,0,44.86-6.03,62.11-18.13
		C973.38,755.8,982,741.06,982,723.66c0-25.77-12.11-38.66-36.33-38.66c-21.97,0-42.14,22.56-60.55,67.66L871.56,786z"/>
</g>
</svg>
